<svg width="25" height="25" viewBox="0 0 25 25" fill="none" xmlns="http://www.w3.org/2000/svg">
<g clip-path="url(#clip0_22_71)">
<path d="M8.36988 7.365C8.38088 7.376 8.39089 7.388 8.40089 7.399C9.54803 6.49826 10.9652 6.01024 12.4237 6.01369C13.8822 6.01713 15.297 6.51184 16.4399 7.418C16.4489 7.407 16.4579 7.397 16.4689 7.386L20.7429 3.112C18.4523 1.09548 15.502 -0.0116087 12.4502 0.000184816C9.39847 0.0119783 6.45686 1.14183 4.18188 3.176L8.36988 7.365Z" fill="#FA709A"/>
<path d="M21.8391 4.20901L17.565 8.48302C17.553 8.49502 17.541 8.50501 17.528 8.51601C18.417 9.65929 18.8981 11.0671 18.8946 12.5153C18.8912 13.9635 18.4034 15.369 17.509 16.508C17.52 16.518 17.532 16.528 17.543 16.539L21.774 20.77C23.8084 18.4952 24.9384 15.5536 24.9503 12.5019C24.9623 9.45009 23.8554 6.49977 21.8391 4.20901Z" fill="#FA709A"/>
<path d="M7.27292 16.538C7.28392 16.527 7.29592 16.517 7.30692 16.507C6.4094 15.364 5.92155 13.9528 5.92155 12.4995C5.92155 11.0462 6.4094 9.63502 7.30692 8.49201C7.29592 8.48201 7.28392 8.47201 7.27292 8.46101L3.08992 4.27802C1.09742 6.55304 -0.000976563 9.47431 -0.000976562 12.4985C-0.000976563 15.5227 1.09742 18.444 3.08992 20.719L7.27292 16.538Z" fill="#FA709A"/>
<path d="M16.447 17.635C16.436 17.624 16.426 17.612 16.416 17.601C15.273 18.4985 13.8618 18.9864 12.4085 18.9864C10.9552 18.9864 9.544 18.4985 8.40099 17.601C8.39099 17.613 8.38099 17.624 8.36999 17.635L4.18799 21.819C6.46085 23.8296 9.38855 24.943 12.4231 24.9507C15.4576 24.9584 18.3909 23.86 20.674 21.861L16.447 17.635Z" fill="#FA709A"/>
</g>
<defs>
<clipPath id="clip0_22_71">
<rect width="24.951" height="24.951" fill="white"/>
</clipPath>
</defs>
</svg>
