<svg width="25" height="25" viewBox="0 0 25 25" fill="none" xmlns="http://www.w3.org/2000/svg">
<g clip-path="url(#clip0_22_66)">
<path d="M9.426 0H1.783C1.31028 0.000529361 0.857076 0.188551 0.522813 0.522813C0.188551 0.857076 0.000529361 1.31028 0 1.783L0 6.369C0.000529361 6.84172 0.188551 7.29492 0.522813 7.62919C0.857076 7.96345 1.31028 8.15147 1.783 8.152H9.426C9.89872 8.15147 10.3519 7.96345 10.6862 7.62919C11.0204 7.29492 11.2085 6.84172 11.209 6.369V1.783C11.2085 1.31028 11.0204 0.857076 10.6862 0.522813C10.3519 0.188551 9.89872 0.000529361 9.426 0Z" fill="#FA709A"/>
<path d="M9.426 10.19H1.783C1.31028 10.1905 0.857076 10.3786 0.522813 10.7128C0.188551 11.0471 0.000529361 11.5003 0 11.973V22.673C-2.96944e-07 23.1461 0.187787 23.5998 0.522107 23.9345C0.856427 24.2692 1.30994 24.4575 1.783 24.458H9.426C9.89872 24.4575 10.3519 24.2695 10.6862 23.9352C11.0204 23.6009 11.2085 23.1477 11.209 22.675V11.975C11.209 11.5019 11.0212 11.0482 10.6869 10.7135C10.3526 10.3788 9.89906 10.1905 9.426 10.19Z" fill="#FA709A"/>
<path d="M22.673 16.304H15.031C14.5583 16.3045 14.1051 16.4926 13.7708 16.8268C13.4366 17.1611 13.2486 17.6143 13.248 18.087V22.672C13.2486 23.1447 13.4366 23.5979 13.7708 23.9322C14.1051 24.2664 14.5583 24.4545 15.031 24.455H22.673C23.1458 24.4545 23.599 24.2664 23.9332 23.9322C24.2675 23.5979 24.4555 23.1447 24.456 22.672V18.087C24.4555 17.6143 24.2675 17.1611 23.9332 16.8268C23.599 16.4926 23.1458 16.3045 22.673 16.304Z" fill="#FA709A"/>
<path d="M22.673 0H15.031C14.5583 0.000529361 14.1051 0.188551 13.7708 0.522813C13.4366 0.857076 13.2486 1.31028 13.248 1.783V12.483C13.2486 12.9557 13.4366 13.4089 13.7708 13.7432C14.1051 14.0774 14.5583 14.2655 15.031 14.266H22.673C23.1458 14.2655 23.599 14.0774 23.9332 13.7432C24.2675 13.4089 24.4555 12.9557 24.456 12.483V1.783C24.4555 1.31028 24.2675 0.857076 23.9332 0.522813C23.599 0.188551 23.1458 0.000529361 22.673 0Z" fill="#FA709A"/>
</g>
<defs>
<clipPath id="clip0_22_66">
<rect width="24.456" height="24.456" fill="white"/>
</clipPath>
</defs>
</svg>
