<svg width="25" height="25" viewBox="0 0 25 25" fill="none" xmlns="http://www.w3.org/2000/svg">
<g clip-path="url(#clip0_22_67)">
<path d="M24.366 9.635L22.448 9.218C22.281 8.70685 22.0747 8.20936 21.831 7.73L22.893 6.078C22.9849 5.93482 23.025 5.76453 23.0069 5.59538C22.9887 5.42623 22.9132 5.26838 22.793 5.148L19.8 2.16C19.6796 2.03979 19.5218 1.96433 19.3526 1.94614C19.1835 1.92795 19.0132 1.96813 18.87 2.06L17.223 3.122C16.7435 2.87655 16.2456 2.6686 15.734 2.5L15.317 0.587C15.2807 0.420824 15.1888 0.272025 15.0564 0.165266C14.924 0.0585059 14.7591 0.000195816 14.589 1.33927e-08H10.364C10.1937 -3.22347e-05 10.0286 0.0581737 9.89599 0.164952C9.76338 0.271731 9.67129 0.420657 9.635 0.587L9.218 2.5C8.70685 2.66703 8.20936 2.87331 7.73 3.117L6.078 2.06C5.93482 1.96813 5.76453 1.92795 5.59538 1.94614C5.42623 1.96433 5.26838 2.03979 5.148 2.16L2.16 5.148C2.03979 5.26838 1.96433 5.42623 1.94614 5.59538C1.92795 5.76453 1.96813 5.93482 2.06 6.078L3.122 7.73C2.8766 8.20922 2.66865 8.7067 2.5 9.218L0.587 9.635C0.420657 9.67129 0.271731 9.76338 0.164952 9.89599C0.0581737 10.0286 -3.22347e-05 10.1937 1.33927e-08 10.364L1.33927e-08 14.589C-3.22347e-05 14.7593 0.0581737 14.9244 0.164952 15.057C0.271731 15.1896 0.420657 15.2817 0.587 15.318L2.505 15.735C2.67203 16.2462 2.87831 16.7436 3.122 17.223L2.06 18.874C1.96813 19.0172 1.92795 19.1875 1.94614 19.3566C1.96433 19.5258 2.03979 19.6836 2.16 19.804L5.148 22.792C5.26838 22.9122 5.42623 22.9877 5.59538 23.0059C5.76453 23.024 5.93482 22.9839 6.078 22.892L7.73 21.831C8.20936 22.0747 8.70685 22.281 9.218 22.448L9.635 24.366C9.67129 24.5323 9.76338 24.6813 9.89599 24.788C10.0286 24.8948 10.1937 24.953 10.364 24.953H14.589C14.7593 24.953 14.9244 24.8948 15.057 24.788C15.1896 24.6813 15.2817 24.5323 15.318 24.366L15.735 22.448C16.2462 22.281 16.7436 22.0747 17.223 21.831L18.875 22.893C19.0182 22.9849 19.1885 23.025 19.3576 23.0069C19.5268 22.9887 19.6846 22.9132 19.805 22.793L22.792 19.8C22.9122 19.6796 22.9877 19.5218 23.0059 19.3526C23.024 19.1835 22.9839 19.0132 22.892 18.87L21.83 17.218C22.0737 16.7386 22.28 16.2412 22.447 15.73L24.365 15.313C24.5313 15.2767 24.6803 15.1846 24.787 15.052C24.8938 14.9194 24.952 14.7543 24.952 14.584V10.364C24.9521 10.1939 24.894 10.0288 24.7874 9.89626C24.6809 9.76367 24.5322 9.67149 24.366 9.635ZM16.95 12.476C16.9496 13.3608 16.6869 14.2256 16.195 14.9611C15.7032 15.6966 15.0043 16.2697 14.1867 16.608C13.3692 16.9463 12.4697 17.0346 11.6019 16.8618C10.7342 16.6889 9.9372 16.2627 9.3117 15.6369C8.6862 15.0111 8.26029 14.2139 8.08782 13.3461C7.91535 12.4783 8.00407 11.5788 8.34275 10.7614C8.68144 9.94401 9.25488 9.24539 9.99059 8.75387C10.7263 8.26235 11.5912 8 12.476 8C13.6625 8.00132 14.8 8.47339 15.6388 9.31257C16.4776 10.1518 16.9492 11.2895 16.95 12.476Z" fill="#FA709A"/>
</g>
<defs>
<clipPath id="clip0_22_67">
<rect width="24.953" height="24.953" fill="white"/>
</clipPath>
</defs>
</svg>
