<svg width="28" height="20" viewBox="0 0 28 20" fill="none" xmlns="http://www.w3.org/2000/svg">
<g clip-path="url(#clip0_22_73)">
<path d="M26.6329 4.48201C26.4822 4.35016 26.303 4.25492 26.1094 4.2037C25.9158 4.15249 25.713 4.14669 25.5168 4.18676C25.3206 4.22684 25.1363 4.31169 24.9783 4.43472C24.8203 4.55775 24.6928 4.71561 24.6059 4.89601L21.2789 11.809C21.2268 11.9178 21.1508 12.0134 21.0566 12.0887C20.9623 12.164 20.8522 12.217 20.7346 12.2437C20.617 12.2705 20.4948 12.2703 20.3773 12.2431C20.2598 12.216 20.1499 12.1626 20.0559 12.087C19.9789 12.03 17.9559 10.554 13.6989 10.554C9.4419 10.554 7.4189 12.029 7.3419 12.087C7.2479 12.1626 7.13802 12.216 7.02049 12.2431C6.90295 12.2703 6.7808 12.2705 6.66318 12.2437C6.54555 12.217 6.43549 12.164 6.34124 12.0887C6.24698 12.0134 6.17097 11.9178 6.1189 11.809C2.8739 5.131 3.4249 6.268 2.7639 4.891C2.67857 4.71257 2.55305 4.55635 2.39719 4.43458C2.24133 4.31281 2.05937 4.22882 1.8656 4.18919C1.67182 4.14956 1.4715 4.15538 1.28035 4.20619C1.0892 4.25699 0.912425 4.3514 0.763896 4.48201C0.402629 4.80572 0.152961 5.23537 0.0505856 5.70953C-0.0517893 6.18369 -0.00162874 6.67807 0.193896 7.12201C1.9499 10.955 1.2009 9.24901 3.5279 14.75L4.3819 16.876C4.44193 17.0244 4.54512 17.1514 4.67812 17.2406C4.81111 17.3297 4.96779 17.3769 5.1279 17.376H6.8999V18.686C6.89821 18.8947 6.97657 19.0962 7.11887 19.2489C7.26116 19.4016 7.45657 19.494 7.6649 19.507C7.77343 19.5127 7.88199 19.4962 7.98396 19.4586C8.08592 19.421 8.17914 19.3629 8.25793 19.2881C8.33673 19.2132 8.39944 19.1231 8.44224 19.0232C8.48505 18.9233 8.50705 18.8157 8.5069 18.707V17.374H18.8999V18.684C18.8982 18.8927 18.9766 19.0942 19.1189 19.2469C19.2612 19.3996 19.4566 19.492 19.6649 19.505C19.7734 19.5107 19.882 19.4942 19.984 19.4566C20.0859 19.419 20.1791 19.3609 20.2579 19.2861C20.3367 19.2112 20.3994 19.1211 20.4422 19.0212C20.485 18.9213 20.507 18.8137 20.5069 18.705V17.372H22.2699C22.43 17.3729 22.5867 17.3257 22.7197 17.2366C22.8527 17.1474 22.9559 17.0204 23.0159 16.872C24.0919 14.194 23.4829 15.662 25.8089 10.162C27.2899 6.92801 27.2089 7.111 27.2089 7.096C27.3985 6.65343 27.4444 6.16253 27.3401 5.69249C27.2359 5.22244 26.9868 4.79696 26.6279 4.47601L26.6329 4.48201Z" fill="#FA709A"/>
<path d="M7.18284 10.323C9.2369 9.41955 11.4564 8.95302 13.7003 8.95302C15.9443 8.95302 18.1638 9.41955 20.2178 10.323C23.0778 4.434 22.5028 5.634 23.1878 4.169C22.0605 2.86003 20.6638 1.8099 19.0933 1.09039C17.5227 0.370873 15.8154 -0.00106129 14.0878 3.22035e-06H13.3148C11.5849 -0.0012641 9.87507 0.371532 8.30264 1.09285C6.73022 1.81416 5.33234 2.86693 4.20483 4.179C4.95383 5.74 4.37684 4.548 7.18284 10.323ZM16.3278 5.84001C16.3435 5.6793 16.4075 5.5271 16.5113 5.40343C16.6152 5.27976 16.754 5.1904 16.9095 5.14711C17.0651 5.10381 17.2301 5.1086 17.3829 5.16085C17.5357 5.21309 17.6691 5.31035 17.7656 5.43984C17.862 5.56932 17.9171 5.72497 17.9234 5.88632C17.9298 6.04767 17.8872 6.20716 17.8012 6.34383C17.7152 6.4805 17.5899 6.58796 17.4417 6.65206C17.2934 6.71617 17.1293 6.73393 16.9708 6.70301C16.7755 6.6649 16.6014 6.55536 16.4825 6.39579C16.3636 6.23621 16.3085 6.03806 16.3278 5.84001ZM12.8998 4.986C12.9155 4.8253 12.9795 4.6731 13.0833 4.54943C13.1872 4.42576 13.326 4.33641 13.4815 4.29311C13.6371 4.24981 13.8021 4.2546 13.9549 4.30685C14.1077 4.3591 14.2411 4.45635 14.3376 4.58583C14.434 4.71532 14.4891 4.87097 14.4954 5.03231C14.5018 5.19366 14.4592 5.35315 14.3732 5.48983C14.2872 5.6265 14.1619 5.73395 14.0137 5.79806C13.8655 5.86217 13.7013 5.87993 13.5428 5.849C13.3475 5.81089 13.1734 5.70136 13.0545 5.54179C12.9356 5.38222 12.8805 5.18406 12.8998 4.986ZM9.47184 5.83901C9.48754 5.6783 9.55151 5.5261 9.65533 5.40243C9.75916 5.27876 9.89797 5.1894 10.0535 5.14611C10.2091 5.10281 10.3741 5.1076 10.5269 5.15985C10.6797 5.21209 10.8131 5.30935 10.9096 5.43884C11.006 5.56832 11.0611 5.72396 11.0674 5.88531C11.0738 6.04666 11.0312 6.20616 10.9452 6.34283C10.8592 6.4795 10.7339 6.58696 10.5857 6.65107C10.4375 6.71517 10.2733 6.73293 10.1148 6.70201C9.91952 6.6639 9.74543 6.55436 9.62653 6.39479C9.50764 6.23521 9.45249 6.03706 9.47184 5.83901Z" fill="#FA709A"/>
</g>
<defs>
<clipPath id="clip0_22_73">
<rect width="27.399" height="19.514" fill="white"/>
</clipPath>
</defs>
</svg>
