<svg width="25" height="25" viewBox="0 0 25 25" fill="none" xmlns="http://www.w3.org/2000/svg">
<g clip-path="url(#clip0_22_70)">
<path d="M14.271 16.233L13.465 15.793C13.2917 15.6984 13.147 15.5589 13.0462 15.3891C12.9454 15.2193 12.8921 15.0255 12.892 14.828V13.453C13.5665 12.5527 14.0609 11.5307 14.348 10.443C14.5424 10.2882 14.6993 10.0915 14.8072 9.86765C14.915 9.64379 14.971 9.39849 14.971 9.15V7.486C14.9695 7.08358 14.8216 6.69546 14.555 6.394V4.182C14.6357 3.19784 14.3228 2.22185 13.685 1.468C13.1448 0.940656 12.4969 0.536418 11.7857 0.283026C11.0746 0.0296337 10.317 -0.0669151 9.56502 3.78489e-06C8.81305 -0.0669151 8.05549 0.0296337 7.34434 0.283026C6.63318 0.536418 5.98526 0.940656 5.44502 1.468C4.80692 2.22168 4.49401 3.1978 4.57502 4.182V6.394C4.30819 6.69531 4.1603 7.08353 4.15902 7.486V9.149C4.159 9.39749 4.21501 9.64279 4.32287 9.86665C4.43073 10.0905 4.58767 10.2872 4.78202 10.442C5.06924 11.5298 5.56397 12.5519 6.23902 13.452V14.828C6.23893 15.0255 6.18567 15.2193 6.08485 15.3891C5.98403 15.5589 5.83936 15.6984 5.66602 15.793L1.95602 17.817C1.36389 18.1392 0.869597 18.6152 0.525194 19.1947C0.18079 19.7742 -0.00097962 20.4359 -0.000976562 21.11L-0.000976562 22.873C-0.000976562 22.9276 0.0097836 22.9817 0.0306896 23.0322C0.0515955 23.0827 0.0822378 23.1285 0.120867 23.1672C0.159496 23.2058 0.205356 23.2364 0.255827 23.2573C0.306299 23.2782 0.360394 23.289 0.415023 23.289H14.567C13.8032 22.2837 13.3651 21.0689 13.3114 19.8075C13.2578 18.5461 13.5913 17.2985 14.267 16.232L14.271 16.233Z" fill="#FA709A"/>
<path d="M19.5459 14.14C18.4767 14.14 17.4315 14.4571 16.5425 15.0511C15.6535 15.6451 14.9606 16.4894 14.5514 17.4772C14.1422 18.465 14.0352 19.552 14.2438 20.6007C14.4524 21.6493 14.9672 22.6126 15.7233 23.3686C16.4793 24.1247 17.4426 24.6395 18.4912 24.8481C19.5399 25.0567 20.6269 24.9497 21.6147 24.5405C22.6025 24.1313 23.4468 23.4384 24.0408 22.5494C24.6348 21.6604 24.9519 20.6152 24.9519 19.546C24.95 18.1128 24.3799 16.7389 23.3665 15.7254C22.3531 14.712 20.9791 14.1419 19.5459 14.14ZM22.0459 19.962H19.9669V22.041C19.9669 22.1513 19.9231 22.2571 19.8451 22.3352C19.767 22.4132 19.6612 22.457 19.5509 22.457C19.4406 22.457 19.3348 22.4132 19.2567 22.3352C19.1787 22.2571 19.1349 22.1513 19.1349 22.041V19.962H17.0559C16.9456 19.962 16.8398 19.9182 16.7617 19.8402C16.6837 19.7621 16.6399 19.6563 16.6399 19.546C16.6399 19.4357 16.6837 19.3299 16.7617 19.2518C16.8398 19.1738 16.9456 19.13 17.0559 19.13H19.1349V17.051C19.1349 16.9407 19.1787 16.8349 19.2567 16.7569C19.3348 16.6788 19.4406 16.635 19.5509 16.635C19.6612 16.635 19.767 16.6788 19.8451 16.7569C19.9231 16.8349 19.9669 16.9407 19.9669 17.051V19.13H22.0459C22.1562 19.13 22.262 19.1738 22.34 19.2518C22.4181 19.3299 22.4619 19.4357 22.4619 19.546C22.4619 19.6563 22.4181 19.7621 22.34 19.8402C22.262 19.9182 22.1562 19.962 22.0459 19.962Z" fill="#FA709A"/>
</g>
<defs>
<clipPath id="clip0_22_70">
<rect width="24.953" height="24.953" fill="white"/>
</clipPath>
</defs>
</svg>
