<svg width="26" height="26" viewBox="0 0 26 26" fill="none" xmlns="http://www.w3.org/2000/svg">
<g clip-path="url(#clip0_22_72)">
<path d="M12.765 0C10.2403 0 7.77235 0.748654 5.67315 2.15129C3.57396 3.55393 1.93784 5.54755 0.971684 7.88005C0.00553089 10.2125 -0.247259 12.7792 0.245282 15.2553C0.737822 17.7315 1.95357 20.006 3.73879 21.7912C5.524 23.5764 7.79851 24.7922 10.2747 25.2847C12.7508 25.7773 15.3175 25.5245 17.65 24.5583C19.9825 23.5922 21.9761 21.956 23.3787 19.8569C24.7814 17.7577 25.53 15.2897 25.53 12.765C25.5263 9.38065 24.1802 6.13597 21.7871 3.74287C19.394 1.34978 16.1494 0.00370569 12.765 0ZM18.35 13.829H13.829V18.35C13.8205 18.6264 13.7048 18.8887 13.5062 19.0812C13.3077 19.2737 13.042 19.3814 12.7655 19.3814C12.489 19.3814 12.2233 19.2737 12.0248 19.0812C11.8262 18.8887 11.7105 18.6264 11.702 18.35V13.829H7.18001C6.90359 13.8205 6.64134 13.7048 6.44882 13.5062C6.25629 13.3077 6.14862 13.042 6.14862 12.7655C6.14862 12.489 6.25629 12.2233 6.44882 12.0248C6.64134 11.8262 6.90359 11.7105 7.18001 11.702H11.7V7.18C11.7085 6.90359 11.8242 6.64133 12.0228 6.44881C12.2213 6.25628 12.487 6.14862 12.7635 6.14862C13.04 6.14862 13.3057 6.25628 13.5042 6.44881C13.7028 6.64133 13.8185 6.90359 13.827 7.18V11.7H18.35C18.4924 11.6956 18.6342 11.7199 18.7671 11.7714C18.8999 11.8229 19.0211 11.9005 19.1234 11.9997C19.2256 12.0989 19.3069 12.2176 19.3625 12.3488C19.418 12.48 19.4466 12.621 19.4466 12.7635C19.4466 12.906 19.418 13.047 19.3625 13.1782C19.3069 13.3094 19.2256 13.4281 19.1234 13.5273C19.0211 13.6265 18.8999 13.7041 18.7671 13.7556C18.6342 13.8071 18.4924 13.8314 18.35 13.827V13.829Z" fill="#FA709A"/>
</g>
<defs>
<clipPath id="clip0_22_72">
<rect width="25.53" height="25.53" fill="white"/>
</clipPath>
</defs>
</svg>
