<svg width="31" height="25" viewBox="0 0 31 25" fill="none" xmlns="http://www.w3.org/2000/svg">
<g clip-path="url(#clip0_22_69)">
<path d="M27.1821 11.574C26.7403 11.549 26.2988 11.6274 25.8928 11.8031C25.4867 11.9788 25.1273 12.2469 24.8431 12.586C24.704 12.7394 24.5499 12.8784 24.3831 13.001V7.261C24.3828 6.88315 24.2326 6.52085 23.9654 6.25367C23.6982 5.98649 23.3359 5.83627 22.9581 5.836H16.9261C17.0476 5.6735 17.1846 5.52314 17.3351 5.38701C17.6737 5.10431 17.9415 4.74622 18.1169 4.34144C18.2923 3.93666 18.3704 3.49642 18.3451 3.05601C18.3407 2.63873 18.2519 2.22666 18.084 1.84461C17.9161 1.46257 17.6726 1.11847 17.3682 0.833025C17.0638 0.547584 16.7048 0.326712 16.3127 0.183721C15.9207 0.0407304 15.5038 -0.0214218 15.0871 0.00100497C14.6704 -0.0214218 14.2534 0.0407304 13.8614 0.183721C13.4694 0.326712 13.1103 0.547584 12.8059 0.833025C12.5015 1.11847 12.258 1.46257 12.0902 1.84461C11.9223 2.22666 11.8335 2.63873 11.8291 3.05601C11.804 3.49776 11.8824 3.93927 12.0581 4.34535C12.2338 4.75143 12.5019 5.11087 12.8411 5.39501C12.9877 5.52972 13.1216 5.67768 13.2411 5.837H7.21507C6.83757 5.83727 6.47557 5.98721 6.20844 6.25396C5.94132 6.52071 5.79087 6.8825 5.79007 7.26V12.99C5.64732 12.8754 5.5136 12.7501 5.39007 12.615C5.10717 12.2763 4.74891 12.0086 4.34396 11.8332C3.93902 11.6578 3.49864 11.5797 3.05807 11.605C2.64054 11.609 2.22814 11.6975 1.84575 11.8652C1.46335 12.0329 1.11889 12.2763 0.833129 12.5808C0.547368 12.8852 0.326232 13.2444 0.183057 13.6366C0.0398826 14.0289 -0.0223636 14.4461 7.24737e-05 14.863C-0.0129958 15.7053 0.287052 16.5224 0.842072 17.156C1.12175 17.4642 1.4636 17.7095 1.84507 17.8759C2.22653 18.0422 2.63894 18.1258 3.05507 18.121C3.4977 18.1469 3.94026 18.069 4.34742 17.8935C4.75458 17.718 5.11506 17.4497 5.40007 17.11C5.50775 16.9956 5.62158 16.8871 5.74107 16.785H5.79007V23.003C5.79086 23.3807 5.94125 23.7427 6.20832 24.0098C6.47539 24.2768 6.83738 24.4272 7.21507 24.428H13.5731C13.6423 24.4308 13.7112 24.4164 13.7735 24.386C13.8358 24.3556 13.8896 24.3103 13.9301 24.254C13.9738 24.1824 13.9998 24.1015 14.0061 24.0178C14.0123 23.9342 13.9986 23.8503 13.9661 23.773C13.8117 23.3981 13.5696 23.0658 13.2601 22.804C12.978 22.5763 12.7551 22.2839 12.6104 21.9515C12.4657 21.6191 12.4035 21.2566 12.4291 20.895C12.4313 20.5559 12.5032 20.221 12.6401 19.9108C12.7771 19.6006 12.9763 19.3219 13.2254 19.0918C13.4745 18.8618 13.7682 18.6853 14.0882 18.5734C14.4083 18.4614 14.7479 18.4164 15.0861 18.441C15.4242 18.4164 15.7639 18.4614 16.0839 18.5734C16.404 18.6853 16.6977 18.8618 16.9467 19.0918C17.1958 19.3219 17.395 19.6006 17.532 19.9108C17.669 20.221 17.7408 20.5559 17.7431 20.895C17.766 21.2636 17.7015 21.6324 17.5551 21.9714C17.4086 22.3104 17.1842 22.6101 16.9001 22.846C16.6054 23.1056 16.371 23.4264 16.2131 23.786C16.1875 23.8552 16.1791 23.9296 16.1887 24.0028C16.1983 24.076 16.2255 24.1457 16.2681 24.206C16.3175 24.2764 16.3835 24.3335 16.4602 24.3722C16.537 24.4109 16.6221 24.4301 16.7081 24.428H22.9571C23.3349 24.4277 23.6972 24.2775 23.9644 24.0103C24.2316 23.7432 24.3818 23.3809 24.3821 23.003V16.659C24.5519 16.7828 24.7084 16.9239 24.8491 17.08C25.1319 17.4187 25.4902 17.6865 25.8951 17.8619C26.3001 18.0373 26.7405 18.1154 27.1811 18.09C28.0082 18.0358 28.7838 17.6689 29.3504 17.0639C29.9171 16.4589 30.2324 15.6609 30.2324 14.832C30.2324 14.0031 29.9171 13.2052 29.3504 12.6001C28.7838 11.9951 28.0092 11.6283 27.1821 11.574Z" fill="#FA709A"/>
</g>
<defs>
<clipPath id="clip0_22_69">
<rect width="30.237" height="24.428" fill="white"/>
</clipPath>
</defs>
</svg>
