<svg width="32" height="32" viewBox="0 0 32 32" fill="none" xmlns="http://www.w3.org/2000/svg">
<g clip-path="url(#clip0_22_68)">
<path d="M16 3.865C15.8586 3.865 15.7231 3.80884 15.6231 3.70889C15.5232 3.60893 15.467 3.47336 15.467 3.332V0.533C15.467 0.39164 15.5232 0.256069 15.6231 0.156112C15.7231 0.0561552 15.8586 0 16 0C16.1414 0 16.2769 0.0561552 16.3769 0.156112C16.4768 0.256069 16.533 0.39164 16.533 0.533V3.333C16.5327 3.47419 16.4765 3.6095 16.3765 3.70924C16.2766 3.80898 16.1412 3.865 16 3.865ZM11.2 3.332V0.533C11.2 0.39164 11.1438 0.256069 11.0439 0.156112C10.9439 0.0561552 10.8084 0 10.667 0C10.5256 0 10.3901 0.0561552 10.2901 0.156112C10.1902 0.256069 10.134 0.39164 10.134 0.533V3.333C10.134 3.47436 10.1902 3.60993 10.2901 3.70989C10.3901 3.80984 10.5256 3.866 10.667 3.866C10.8084 3.866 10.9439 3.80984 11.0439 3.70989C11.1438 3.60993 11.2 3.47336 11.2 3.332ZM21.863 3.332V0.533C21.863 0.39164 21.8068 0.256069 21.7069 0.156112C21.6069 0.0561552 21.4714 4.49285e-08 21.33 4.49285e-08C21.1886 4.49285e-08 21.0531 0.0561552 20.9531 0.156112C20.8532 0.256069 20.797 0.39164 20.797 0.533V3.333C20.797 3.47436 20.8532 3.60993 20.9531 3.70989C21.0531 3.80984 21.1886 3.866 21.33 3.866C21.4714 3.866 21.6069 3.80984 21.7069 3.70989C21.8068 3.60993 21.863 3.47336 21.863 3.332ZM16.528 31.457V28.657C16.528 28.5156 16.4718 28.3801 16.3719 28.2801C16.2719 28.1802 16.1364 28.124 15.995 28.124C15.8536 28.124 15.7181 28.1802 15.6181 28.2801C15.5182 28.3801 15.462 28.5156 15.462 28.657V31.457C15.462 31.5984 15.5182 31.7339 15.6181 31.8339C15.7181 31.9338 15.8536 31.99 15.995 31.99C16.1364 31.99 16.2719 31.9338 16.3719 31.8339C16.4718 31.7339 16.528 31.5984 16.528 31.457ZM21.86 31.457V28.657C21.86 28.5156 21.8038 28.3801 21.7039 28.2801C21.6039 28.1802 21.4684 28.124 21.327 28.124C21.1856 28.124 21.0501 28.1802 20.9501 28.2801C20.8502 28.3801 20.794 28.5156 20.794 28.657V31.457C20.794 31.5984 20.8502 31.7339 20.9501 31.8339C21.0501 31.9338 21.1856 31.99 21.327 31.99C21.4684 31.99 21.6039 31.9338 21.7039 31.8339C21.8038 31.7339 21.86 31.5984 21.86 31.457ZM11.197 31.457V28.657C11.197 28.5156 11.1408 28.3801 11.0409 28.2801C10.9409 28.1802 10.8054 28.124 10.664 28.124C10.5226 28.124 10.3871 28.1802 10.2871 28.2801C10.1872 28.3801 10.131 28.5156 10.131 28.657V31.457C10.131 31.5984 10.1872 31.7339 10.2871 31.8339C10.3871 31.9338 10.5226 31.99 10.664 31.99C10.8054 31.99 10.9409 31.9338 11.0409 31.8339C11.1408 31.7339 11.197 31.5984 11.197 31.457ZM31.99 16C31.99 15.93 31.9762 15.8607 31.9494 15.796C31.9226 15.7314 31.8834 15.6726 31.8339 15.6231C31.7844 15.5736 31.7256 15.5344 31.661 15.5076C31.5963 15.4808 31.527 15.467 31.457 15.467H28.657C28.5156 15.467 28.3801 15.5232 28.2801 15.6231C28.1802 15.7231 28.124 15.8586 28.124 16C28.124 16.1414 28.1802 16.2769 28.2801 16.3769C28.3801 16.4768 28.5156 16.533 28.657 16.533H31.457C31.527 16.533 31.5963 16.5192 31.661 16.4924C31.7256 16.4656 31.7844 16.4264 31.8339 16.3769C31.8834 16.3274 31.9226 16.2686 31.9494 16.204C31.9762 16.1393 31.99 16.07 31.99 16ZM31.99 10.668C31.99 10.598 31.9762 10.5287 31.9494 10.464C31.9226 10.3994 31.8834 10.3406 31.8339 10.2911C31.7844 10.2416 31.7256 10.2024 31.661 10.1756C31.5963 10.1488 31.527 10.135 31.457 10.135H28.657C28.5156 10.135 28.3801 10.1912 28.2801 10.2911C28.1802 10.3911 28.124 10.5266 28.124 10.668C28.124 10.8094 28.1802 10.9449 28.2801 11.0449C28.3801 11.1448 28.5156 11.201 28.657 11.201H31.457C31.5274 11.201 31.5971 11.1871 31.6621 11.16C31.7271 11.1329 31.7861 11.0931 31.8357 11.0431C31.8852 10.9931 31.9244 10.9338 31.9509 10.8685C31.9774 10.8033 31.9907 10.7334 31.99 10.663V10.668ZM31.99 21.331C31.99 21.261 31.9762 21.1917 31.9494 21.127C31.9226 21.0624 31.8834 21.0036 31.8339 20.9541C31.7844 20.9046 31.7256 20.8654 31.661 20.8386C31.5963 20.8118 31.527 20.798 31.457 20.798H28.657C28.5156 20.798 28.3801 20.8542 28.2801 20.9541C28.1802 21.0541 28.124 21.1896 28.124 21.331C28.124 21.4724 28.1802 21.6079 28.2801 21.7079C28.3801 21.8078 28.5156 21.864 28.657 21.864H31.457C31.5273 21.864 31.597 21.8501 31.6619 21.823C31.7268 21.796 31.7858 21.7564 31.8353 21.7065C31.8849 21.6566 31.924 21.5973 31.9506 21.5322C31.9771 21.4671 31.9905 21.3973 31.99 21.327V21.331ZM3.865 16C3.865 15.8586 3.80884 15.7231 3.70889 15.6231C3.60893 15.5232 3.47336 15.467 3.332 15.467H0.533C0.39164 15.467 0.256069 15.5232 0.156112 15.6231C0.0561552 15.7231 0 15.8586 0 16C0 16.1414 0.0561552 16.2769 0.156112 16.3769C0.256069 16.4768 0.39164 16.533 0.533 16.533H3.333C3.47419 16.5327 3.6095 16.4765 3.70924 16.3765C3.80898 16.2766 3.865 16.1412 3.865 16ZM3.865 21.332C3.865 21.262 3.85121 21.1927 3.82443 21.128C3.79764 21.0634 3.75838 21.0046 3.70889 20.9551C3.65939 20.9056 3.60064 20.8664 3.53597 20.8396C3.4713 20.8128 3.40199 20.799 3.332 20.799H0.533C0.39164 20.799 0.256069 20.8552 0.156112 20.9551C0.0561552 21.0551 0 21.1906 0 21.332C0 21.4734 0.0561552 21.6089 0.156112 21.7089C0.256069 21.8088 0.39164 21.865 0.533 21.865H3.333C3.40333 21.8649 3.47295 21.8508 3.53782 21.8237C3.6027 21.7965 3.66157 21.7568 3.71102 21.7068C3.76047 21.6568 3.79954 21.5975 3.82597 21.5323C3.85239 21.4671 3.86566 21.3973 3.865 21.327V21.332ZM3.865 10.669C3.865 10.5276 3.80884 10.3921 3.70889 10.2921C3.60893 10.1922 3.47336 10.136 3.332 10.136H0.533C0.39164 10.136 0.256069 10.1922 0.156112 10.2921C0.0561552 10.3921 0 10.5276 0 10.669C0 10.8104 0.0561552 10.9459 0.156112 11.0459C0.256069 11.1458 0.39164 11.202 0.533 11.202H3.333C3.40342 11.2019 3.47311 11.1878 3.53806 11.1606C3.603 11.1334 3.66191 11.0935 3.71138 11.0434C3.76084 10.9933 3.79989 10.9339 3.82626 10.8686C3.85262 10.8033 3.86579 10.7334 3.865 10.663V10.669ZM26.525 8.136V23.859C26.5242 24.5658 26.2431 25.2435 25.7433 25.7433C25.2435 26.2431 24.5658 26.5242 23.859 26.525H8.131C7.42418 26.5242 6.74653 26.2431 6.24673 25.7433C5.74693 25.2435 5.46579 24.5658 5.465 23.859V8.131C5.46579 7.42418 5.74693 6.74653 6.24673 6.24673C6.74653 5.74693 7.42418 5.46579 8.131 5.465H23.859C24.5658 5.46579 25.2435 5.74693 25.7433 6.24673C26.2431 6.74653 26.5242 7.42418 26.525 8.131V8.136ZM16.7 17.921C16.5602 17.7811 16.382 17.6858 16.188 17.6472C15.994 17.6086 15.7929 17.6284 15.6102 17.7041C15.4274 17.7798 15.2712 17.9079 15.1613 18.0724C15.0514 18.2369 14.9928 18.4302 14.9928 18.628C14.9928 18.8258 15.0514 19.0191 15.1613 19.1836C15.2712 19.3481 15.4274 19.4762 15.6102 19.5519C15.7929 19.6276 15.994 19.6474 16.188 19.6088C16.382 19.5702 16.5602 19.4749 16.7 19.335C16.8875 19.1475 16.9928 18.8932 16.9928 18.628C16.9928 18.3628 16.8875 18.1085 16.7 17.921ZM18.444 16.177C18.1223 15.8552 17.7404 15.5999 17.32 15.4257C16.8996 15.2515 16.449 15.1618 15.994 15.1618C15.539 15.1618 15.0884 15.2515 14.668 15.4257C14.2476 15.5999 13.8657 15.8552 13.544 16.177C13.444 16.277 13.3878 16.4126 13.3878 16.554C13.3878 16.6954 13.444 16.831 13.544 16.931C13.644 17.031 13.7796 17.0872 13.921 17.0872C14.0624 17.0872 14.198 17.031 14.298 16.931C14.748 16.4813 15.3583 16.2286 15.9945 16.2286C16.6307 16.2286 17.241 16.4813 17.691 16.931C17.791 17.031 17.9266 17.0872 18.068 17.0872C18.2094 17.0872 18.345 17.031 18.445 16.931C18.545 16.831 18.6012 16.6954 18.6012 16.554C18.6012 16.4126 18.544 16.277 18.444 16.177ZM20.425 14.2C19.8435 13.6178 19.1529 13.1559 18.3928 12.8407C17.6327 12.5256 16.8179 12.3634 15.995 12.3634C15.1721 12.3634 14.3573 12.5256 13.5972 12.8407C12.837 13.1559 12.1465 13.6178 11.565 14.2C11.465 14.3 11.4088 14.4356 11.4088 14.577C11.4088 14.7184 11.465 14.854 11.565 14.954C11.665 15.054 11.8006 15.1102 11.942 15.1102C12.0834 15.1102 12.219 15.054 12.319 14.954C13.2941 13.9794 14.6163 13.4319 15.995 13.4319C17.3737 13.4319 18.6959 13.9794 19.671 14.954C19.771 15.054 19.9066 15.1102 20.048 15.1102C20.1894 15.1102 20.325 15.054 20.425 14.954C20.525 14.854 20.5812 14.7184 20.5812 14.577C20.5812 14.4356 20.525 14.3 20.425 14.2Z" fill="#FA709A"/>
</g>
<defs>
<clipPath id="clip0_22_68">
<rect width="31.99" height="31.99" fill="white"/>
</clipPath>
</defs>
</svg>
