<svg xmlns="http://www.w3.org/2000/svg" width="30.237" height="24.428" viewBox="0 0 30.237 24.428">
  <path id="_001-puzzle" data-name="001-puzzle" d="M27.182,55.156a2.842,2.842,0,0,0-2.339,1.012,3.1,3.1,0,0,1-.46.415v-5.74a1.426,1.426,0,0,0-1.425-1.425H16.926a3.148,3.148,0,0,1,.409-.449,2.825,2.825,0,0,0,1.01-2.331,3.092,3.092,0,0,0-3.258-3.055,3.092,3.092,0,0,0-3.258,3.055,2.841,2.841,0,0,0,1.012,2.339,3.237,3.237,0,0,1,.4.442H7.215A1.426,1.426,0,0,0,5.79,50.842v5.73a3.57,3.57,0,0,1-.4-.375,2.827,2.827,0,0,0-2.332-1.01A3.092,3.092,0,0,0,0,58.445a3.4,3.4,0,0,0,.842,2.293,2.943,2.943,0,0,0,2.213.965A2.844,2.844,0,0,0,5.4,60.692a4.322,4.322,0,0,1,.341-.325H5.79v6.218A1.428,1.428,0,0,0,7.215,68.01h6.358a.419.419,0,0,0,.357-.174.529.529,0,0,0,.036-.481,2.531,2.531,0,0,0-.706-.969,2.249,2.249,0,0,1-.831-1.909,2.477,2.477,0,0,1,2.657-2.454,2.477,2.477,0,0,1,2.657,2.454,2.347,2.347,0,0,1-.843,1.951,2.7,2.7,0,0,0-.687.94.455.455,0,0,0,.055.42.522.522,0,0,0,.44.222h6.249a1.426,1.426,0,0,0,1.425-1.425V60.241a3.033,3.033,0,0,1,.467.421,2.826,2.826,0,0,0,2.332,1.01,3.265,3.265,0,0,0,0-6.516Z" transform="translate(0 -43.582)" fill="#9fa3b1"/>
</svg>
