<svg xmlns="http://www.w3.org/2000/svg" width="24.953" height="24.953" viewBox="0 0 24.953 24.953">
  <path id="_003-gear" data-name="003-gear" d="M24.366,9.635l-1.918-.417a10.437,10.437,0,0,0-.617-1.488l1.062-1.652a.746.746,0,0,0-.1-.93L19.8,2.16a.746.746,0,0,0-.93-.1L17.223,3.122A10.438,10.438,0,0,0,15.734,2.5L15.317.587A.746.746,0,0,0,14.589,0H10.364a.746.746,0,0,0-.729.587L9.218,2.5a10.437,10.437,0,0,0-1.488.617L6.078,2.06a.746.746,0,0,0-.93.1L2.16,5.148a.746.746,0,0,0-.1.93L3.122,7.73A10.438,10.438,0,0,0,2.5,9.218L.587,9.635A.746.746,0,0,0,0,10.364v4.225a.746.746,0,0,0,.587.729l1.918.417a10.437,10.437,0,0,0,.617,1.488L2.06,18.874a.746.746,0,0,0,.1.93l2.988,2.988a.746.746,0,0,0,.93.1L7.73,21.831a10.437,10.437,0,0,0,1.488.617l.417,1.918a.746.746,0,0,0,.729.587h4.225a.746.746,0,0,0,.729-.587l.417-1.918a10.437,10.437,0,0,0,1.488-.617l1.652,1.062a.746.746,0,0,0,.93-.1L22.792,19.8a.746.746,0,0,0,.1-.93l-1.062-1.652a10.438,10.438,0,0,0,.617-1.488l1.918-.417a.746.746,0,0,0,.587-.729V10.364A.746.746,0,0,0,24.366,9.635ZM16.95,12.476A4.474,4.474,0,1,1,12.476,8,4.479,4.479,0,0,1,16.95,12.476Zm0,0" transform="translate(0 0)" fill="#9fa3b1"/>
</svg>
