<svg xmlns="http://www.w3.org/2000/svg" width="27.399" height="19.514" viewBox="0 0 27.399 19.514">
  <g id="_004-sofa-2" data-name="004-sofa-2" transform="translate(0 0)">
    <path id="Path_174" data-name="Path 174" d="M26.633,151.073a1.3,1.3,0,0,0-2.027.414L21.279,158.4a.8.8,0,0,1-1.223.278c-.077-.057-2.1-1.533-6.357-1.533s-6.28,1.475-6.357,1.533a.8.8,0,0,1-1.223-.278c-3.245-6.678-2.694-5.541-3.355-6.918a1.28,1.28,0,0,0-2-.409,2.3,2.3,0,0,0-.57,2.64c1.756,3.833,1.007,2.127,3.334,7.628l.854,2.126a.8.8,0,0,0,.746.5H6.9v1.31a.816.816,0,0,0,.765.821.8.8,0,0,0,.842-.8v-1.333H18.9v1.31a.816.816,0,0,0,.765.821.8.8,0,0,0,.842-.8v-1.333H22.27a.8.8,0,0,0,.746-.5c1.076-2.678.467-1.21,2.793-6.71,1.481-3.234,1.4-3.051,1.4-3.066a2.3,2.3,0,0,0-.581-2.62Z" transform="translate(0 -146.591)" fill="#9fa3b1"/>
    <path id="Path_175" data-name="Path 175" d="M81.455,83.089a16.188,16.188,0,0,1,13.035,0C97.35,77.2,96.775,78.4,97.46,76.935a12,12,0,0,0-9.1-4.169h-.773a12,12,0,0,0-9.11,4.179C79.226,78.506,78.649,77.314,81.455,83.089ZM90.6,78.606a.8.8,0,1,1,.643.863A.8.8,0,0,1,90.6,78.606Zm-3.428-.854a.8.8,0,1,1,.643.863A.8.8,0,0,1,87.172,77.752Zm-3.428.853a.8.8,0,1,1,.643.863A.8.8,0,0,1,83.744,78.605Z" transform="translate(-74.272 -72.766)" fill="#9fa3b1"/>
  </g>
</svg>
