<svg xmlns="http://www.w3.org/2000/svg" width="24.951" height="24.951" viewBox="0 0 24.951 24.951">
  <g id="_004-lifebuoy" data-name="004-lifebuoy" transform="translate(0 0)">
    <path id="Path_183" data-name="Path 183" d="M89.979,7.365c.011.011.021.023.031.034a6.489,6.489,0,0,1,8.039.019c.009-.011.018-.021.029-.032l4.274-4.274a12.477,12.477,0,0,0-16.561.064Z" transform="translate(-81.609 0)" fill="#9fa3b1"/>
    <path id="Path_184" data-name="Path 184" d="M363.605,86.364l-4.274,4.274c-.012.012-.024.022-.037.033a6.49,6.49,0,0,1-.019,7.992c.011.01.023.02.034.031l4.231,4.231A12.477,12.477,0,0,0,363.605,86.364Z" transform="translate(-341.766 -82.155)" fill="#9fa3b1"/>
    <path id="Path_185" data-name="Path 185" d="M7.273,100.05c.011-.011.023-.021.034-.031a6.489,6.489,0,0,1,0-8.015c-.011-.01-.023-.02-.034-.031L3.09,87.79a12.477,12.477,0,0,0,0,16.441Z" transform="translate(0 -83.512)" fill="#9fa3b1"/>
    <path id="Path_186" data-name="Path 186" d="M98.159,361.193c-.011-.011-.021-.023-.031-.034a6.489,6.489,0,0,1-8.015,0c-.01.012-.02.023-.031.034L85.9,365.377a12.477,12.477,0,0,0,16.486.042Z" transform="translate(-81.712 -343.558)" fill="#9fa3b1"/>
  </g>
</svg>
