<svg id="_006-add-user" data-name="006-add-user" xmlns="http://www.w3.org/2000/svg" width="24.953" height="24.953" viewBox="0 0 24.953 24.953">
  <g id="Group_44" data-name="Group 44" transform="translate(0)">
    <g id="Group_43" data-name="Group 43">
      <path id="Path_190" data-name="Path 190" d="M14.272,16.233l-.806-.44a1.1,1.1,0,0,1-.573-.965V13.453a8.741,8.741,0,0,0,1.456-3.01,1.653,1.653,0,0,0,.623-1.293V7.486a1.658,1.658,0,0,0-.416-1.092V4.182a3.73,3.73,0,0,0-.87-2.714A5.234,5.234,0,0,0,9.566,0,5.234,5.234,0,0,0,5.446,1.468a3.727,3.727,0,0,0-.87,2.714V6.394A1.655,1.655,0,0,0,4.16,7.486V9.149a1.653,1.653,0,0,0,.623,1.293,8.732,8.732,0,0,0,1.457,3.01v1.376a1.1,1.1,0,0,1-.573.965l-3.71,2.024A3.749,3.749,0,0,0,0,21.11v1.763a.416.416,0,0,0,.416.416H14.568a6.189,6.189,0,0,1-.3-7.057Z" transform="translate(-0.001 0)" fill="#9fa3b1"/>
      <path id="Path_191" data-name="Path 191" d="M295.537,290.132a5.406,5.406,0,1,0,5.406,5.406A5.413,5.413,0,0,0,295.537,290.132Zm2.5,5.822h-2.079v2.079a.416.416,0,1,1-.832,0v-2.079h-2.079a.416.416,0,0,1,0-.832h2.079v-2.079a.416.416,0,1,1,.832,0v2.079h2.079a.416.416,0,1,1,0,.832Z" transform="translate(-275.991 -275.992)" fill="#9fa3b1"/>
    </g>
  </g>
</svg>
