<svg xmlns="http://www.w3.org/2000/svg" width="31.99" height="31.99" viewBox="0 0 31.99 31.99">
  <path id="_008-cpu" data-name="008-cpu" d="M16,3.865a.533.533,0,0,1-.533-.533V.533a.533.533,0,1,1,1.066,0v2.8A.533.533,0,0,1,16,3.865Zm-4.8-.533V.533a.533.533,0,1,0-1.066,0v2.8a.533.533,0,1,0,1.066,0Zm10.663,0V.533a.533.533,0,0,0-1.066,0v2.8a.533.533,0,0,0,1.066,0ZM16.528,31.457v-2.8a.533.533,0,0,0-1.066,0v2.8a.533.533,0,0,0,1.066,0Zm5.332,0v-2.8a.533.533,0,0,0-1.066,0v2.8a.533.533,0,0,0,1.066,0Zm-10.663,0v-2.8a.533.533,0,1,0-1.066,0v2.8a.533.533,0,1,0,1.066,0ZM31.99,16a.533.533,0,0,0-.533-.533h-2.8a.533.533,0,0,0,0,1.066h2.8A.533.533,0,0,0,31.99,16Zm0-5.332a.533.533,0,0,0-.533-.533h-2.8a.533.533,0,0,0,0,1.066h2.8A.533.533,0,0,0,31.99,10.663Zm0,10.663a.533.533,0,0,0-.533-.533h-2.8a.533.533,0,0,0,0,1.066h2.8A.533.533,0,0,0,31.99,21.327ZM3.865,16a.533.533,0,0,0-.533-.533H.533a.533.533,0,0,0,0,1.066h2.8A.533.533,0,0,0,3.865,16Zm0,5.332a.533.533,0,0,0-.533-.533H.533a.533.533,0,1,0,0,1.066h2.8A.533.533,0,0,0,3.865,21.327Zm0-10.663a.533.533,0,0,0-.533-.533H.533a.533.533,0,0,0,0,1.066h2.8A.533.533,0,0,0,3.865,10.663Zm22.66-2.533V23.859a2.669,2.669,0,0,1-2.666,2.666H8.131a2.669,2.669,0,0,1-2.666-2.666V8.131A2.669,2.669,0,0,1,8.131,5.465H23.859A2.669,2.669,0,0,1,26.525,8.131ZM16.7,17.921a1,1,0,1,0,0,1.414A1,1,0,0,0,16.7,17.921Zm1.744-1.744a3.464,3.464,0,0,0-4.9,0,.533.533,0,0,0,.754.754,2.4,2.4,0,0,1,3.393,0,.533.533,0,0,0,.754-.754ZM20.425,14.2a6.261,6.261,0,0,0-8.86,0,.533.533,0,0,0,.754.754,5.2,5.2,0,0,1,7.352,0,.533.533,0,0,0,.754-.754Z" fill="#9fa3b1"/>
</svg>
