<svg id="_009-dashboard" data-name="009-dashboard" xmlns="http://www.w3.org/2000/svg" width="24.456" height="24.456" viewBox="0 0 24.456 24.456">
  <path id="Path_192" data-name="Path 192" d="M9.426,0H1.783A1.785,1.785,0,0,0,0,1.783V6.369A1.785,1.785,0,0,0,1.783,8.152H9.426a1.785,1.785,0,0,0,1.783-1.783V1.783A1.785,1.785,0,0,0,9.426,0Zm0,0" fill="#fa709a"/>
  <path id="Path_193" data-name="Path 193" d="M9.426,213.332H1.783A1.785,1.785,0,0,0,0,215.115v10.7A1.785,1.785,0,0,0,1.783,227.6H9.426a1.785,1.785,0,0,0,1.783-1.783v-10.7A1.785,1.785,0,0,0,9.426,213.332Zm0,0" transform="translate(0 -203.142)" fill="#fa709a"/>
  <path id="Path_194" data-name="Path 194" d="M286.758,341.332h-7.642a1.785,1.785,0,0,0-1.783,1.783V347.7a1.785,1.785,0,0,0,1.783,1.783h7.642a1.785,1.785,0,0,0,1.783-1.783v-4.585A1.785,1.785,0,0,0,286.758,341.332Zm0,0" transform="translate(-264.085 -325.028)" fill="#fa709a"/>
  <path id="Path_195" data-name="Path 195" d="M286.758,0h-7.642a1.785,1.785,0,0,0-1.783,1.783v10.7a1.785,1.785,0,0,0,1.783,1.783h7.642a1.785,1.785,0,0,0,1.783-1.783V1.783A1.785,1.785,0,0,0,286.758,0Zm0,0" transform="translate(-264.085 0)" fill="#fa709a"/>
</svg>
