<svg xmlns="http://www.w3.org/2000/svg" width="17" height="31" viewBox="0 0 17 31">
  <path id="Forma_1" data-name="Forma 1" d="M1.841,31A1.818,1.818,0,0,1,0,29.21V3.857a1.818,1.818,0,0,1,1.841-1.79H5.313V0h6.375V2.067H15.16A1.817,1.817,0,0,1,17,3.857V29.21A1.818,1.818,0,0,1,15.159,31ZM1.063,3.857V29.21a.768.768,0,0,0,.778.756H15.16a.768.768,0,0,0,.778-.756V3.857A.768.768,0,0,0,15.16,3.1H1.841A.768.768,0,0,0,1.063,3.857Zm5.96,20.73a.558.558,0,0,1-.114-.34h0v-6.68H4.781a.533.533,0,0,1-.464-.265.5.5,0,0,1,.012-.523L9.589,8.522a.453.453,0,0,1,.038-.053.616.616,0,0,1,.872,0,.532.532,0,0,1,.125.372v6.144h1.594a.535.535,0,0,1,.455.25.5.5,0,0,1,.016.507L7.962,24.512a.535.535,0,0,1-.055.082.571.571,0,0,1-.884-.008Z" fill="#fff"/>
</svg>
