<svg xmlns="http://www.w3.org/2000/svg" width="21" height="33" viewBox="0 0 21 33">
  <path id="Forma_1" data-name="Forma 1" d="M11.569,32.989.447,30.713A.566.566,0,0,1,0,30.155V7.361a.563.563,0,0,1,.556-.569.563.563,0,0,1,.556.569V29.688l10.009,2.048V1.31L1.113,4.041v1.4a.563.563,0,0,1-.556.569A.563.563,0,0,1,0,5.443V3.6a.567.567,0,0,1,.413-.55L11.535.019a.547.547,0,0,1,.482.1.575.575,0,0,1,.218.452V1.653h8.209A.563.563,0,0,1,21,2.222V30.778a.563.563,0,0,1-.556.569H19.093a.569.569,0,0,1,0-1.139h.794V2.792H12.235V4.416h5.508a.563.563,0,0,1,.556.569v23.03a.563.563,0,0,1-.556.569H12.235v1.624h5.128a.569.569,0,0,1,0,1.139H12.235v1.083a.574.574,0,0,1-.2.44.546.546,0,0,1-.462.118Zm.666-5.543h4.951V5.555H12.235Zm-5.05-9.2a.569.569,0,0,1,0-1.139h1.9a.569.569,0,0,1,0,1.139Z" fill="#fc4545"/>
</svg>
