<svg xmlns="http://www.w3.org/2000/svg" width="46.91" height="19.999" viewBox="0 0 46.91 19.999">
  <g id="lifeline-hand-drawn-status-line" transform="translate(0 -139.27)">
    <g id="Group_10" data-name="Group 10" transform="translate(0 139.27)">
      <path id="Path_36" data-name="Path 36" d="M46.876,149.277c-.009-.2-.019-.4-.039-.529a1.422,1.422,0,0,0-.134-.406,3.964,3.964,0,0,0-3.633-2.28,4.891,4.891,0,0,0-1.862.381,1.78,1.78,0,0,0-.407.232c-.075.058-.171.139-.273.225-.135.114-.281.239-.4.328a3.839,3.839,0,0,0-1.177,1.3h-.02c-.969-.074-2.116-.155-3.264-.192a.786.786,0,0,1-.548-.306,19.443,19.443,0,0,1-1.481-2.786,1.087,1.087,0,0,0-.661-.591,1.735,1.735,0,0,0-.6-.085.851.851,0,0,0-.1-.007H27.011a1.349,1.349,0,0,0-.526.1,1.719,1.719,0,0,0-.586.465,1.334,1.334,0,0,0-.138.2c-.462.806-.969,1.66-1.549,2.611-.008.013-.016.023-.02.031a.283.283,0,0,1-.02-.032,80.81,80.81,0,0,1-3.5-7.785,1.359,1.359,0,0,0-1.3-.885,1.318,1.318,0,0,0-1.255.775,2.7,2.7,0,0,0-.12.539,2.623,2.623,0,0,1-.083.407,86.183,86.183,0,0,0-3.532,13.274q-.844-1.4-1.695-2.791c-1.16-1.9-2.358-3.872-3.5-5.826a1.218,1.218,0,0,0-1.077-.64,1.444,1.444,0,0,0-.956.375,1.681,1.681,0,0,0-.481.659c-.275.657-.558,1.31-.839,1.964l-.238.55a.554.554,0,0,1-.449.3H1.288a1.324,1.324,0,0,0,0,2.646H6.111c.028,0,.054,0,.069,0s.064,0,.111,0a1.33,1.33,0,0,0,.488-.087,1.516,1.516,0,0,0,.811-.855q.3-.705.6-1.406,1.073,1.788,2.161,3.567c1.074,1.765,2.185,3.589,3.251,5.4.037.062.074.137.115.218a2.035,2.035,0,0,0,.456.671,1.286,1.286,0,0,0,.8.262,1.441,1.441,0,0,0,1.458-1.235,79.416,79.416,0,0,1,3.129-13.651c.948,2.158,2.027,4.375,3.3,6.774a1.312,1.312,0,0,0,.31.392,1.773,1.773,0,0,0,1,.345,1.265,1.265,0,0,0,1.087-.612c.743-1.162,1.5-2.4,2.3-3.772a.693.693,0,0,1,.516-.3h3.24a.609.609,0,0,1,.474.3,21.635,21.635,0,0,0,1.6,2.7,1.751,1.751,0,0,0,.141.174,1.652,1.652,0,0,0,.516.442,1.3,1.3,0,0,0,.581.131c1.315.007,2.644.093,3.771.176a.52.52,0,0,1,.4.336,6.637,6.637,0,0,0,.694,1.413,1.4,1.4,0,0,0,.283.324,1.652,1.652,0,0,0,.356.217l.021.017a4.469,4.469,0,0,0,4.5.567,1.412,1.412,0,0,0,.14-.067c.021-.011.053-.024.09-.04a2.753,2.753,0,0,0,.276-.132,1.367,1.367,0,0,0,.256-.192,4.777,4.777,0,0,0,1.483-3.976C46.886,149.506,46.881,149.391,46.876,149.277Zm-5.5,1.582a1.437,1.437,0,0,1-.141-1.006c.153-.567,1.133-.9,1.685-1.086a.441.441,0,0,0,.075-.031.823.823,0,0,1,.17-.014,1.124,1.124,0,0,1,.246.026,1.235,1.235,0,0,1,.627.363.883.883,0,0,1,.217.412,1.583,1.583,0,0,0,.02.225,2.034,2.034,0,0,1-.339,1.5,1.232,1.232,0,0,1-.619.412,1.875,1.875,0,0,1-1.406-.221A1.575,1.575,0,0,1,41.374,150.859Z" transform="translate(0 -139.27)" fill="#58b61f"/>
    </g>
  </g>
</svg>
