<svg xmlns="http://www.w3.org/2000/svg" width="19.601" height="21.147" viewBox="0 0 19.601 21.147">
  <g id="logout" transform="translate(-17.219)">
    <g id="Group_11" data-name="Group 11" transform="translate(17.219)">
      <path id="Path_40" data-name="Path 40" d="M26.661,19.935H21.146a2.719,2.719,0,0,1-2.715-2.715V3.927a2.719,2.719,0,0,1,2.715-2.715h5.605a.606.606,0,1,0,0-1.212H21.146a3.931,3.931,0,0,0-3.927,3.927V17.22a3.931,3.931,0,0,0,3.927,3.927h5.516a.606.606,0,1,0,0-1.212Z" transform="translate(-17.219)" fill="#fff"/>
      <path id="Path_41" data-name="Path 41" d="M135.307,140.354l-3.851-3.851a.606.606,0,0,0-.857.857l2.818,2.818H121.125a.606.606,0,0,0,0,1.212h12.292l-2.818,2.818a.608.608,0,0,0,.426,1.037.591.591,0,0,0,.426-.18l3.851-3.851A.605.605,0,0,0,135.307,140.354Z" transform="translate(-115.883 -130.207)" fill="#fff"/>
    </g>
  </g>
</svg>
