<svg xmlns="http://www.w3.org/2000/svg" width="34.255" height="26.239" viewBox="0 0 34.255 26.239">
  <path id="Union_3" data-name="Union 3" d="M7.663,26.238a.816.816,0,0,1-.765-.821V24.107H5.13a.8.8,0,0,1-.746-.5L3.53,21.477C1.2,15.977,1.952,17.682.2,13.849a2.3,2.3,0,0,1,.569-2.641,1.281,1.281,0,0,1,2,.409c.661,1.378.11.24,3.355,6.918a.8.8,0,0,0,1.222.279c.077-.058,2.1-1.533,6.357-1.533s6.28,1.475,6.356,1.533a.8.8,0,0,0,1.223-.279l2.775-5.769a6.884,6.884,0,0,1-1.3-.944c-.244.515-.618,1.278-2.536,5.225a16.19,16.19,0,0,0-13.035,0C4.377,11.273,4.954,12.465,4.2,10.9a12,12,0,0,1,9.11-4.179h.774a12.008,12.008,0,0,1,6.762,2.08,6.769,6.769,0,0,1-.3-1.986,6.851,6.851,0,1,1,6.851,6.82h-.119q-.031.1-.07.189c-.007.015.077-.168-1.4,3.067-2.327,5.5-1.717,4.033-2.793,6.71a.8.8,0,0,1-.746.5H20.5v1.333a.8.8,0,0,1-.8.8H19.66a.816.816,0,0,1-.764-.821V24.107H8.5v1.333a.8.8,0,0,1-.8.8Zm8.666-13.673a.8.8,0,1,0,.956-.706.83.83,0,0,0-.157-.015A.8.8,0,0,0,16.329,12.565Zm-6.856,0a.8.8,0,1,0,.957-.705.841.841,0,0,0-.158-.015A.8.8,0,0,0,9.472,12.565Zm3.428-.853a.8.8,0,1,0,.956-.705.837.837,0,0,0-.158-.015A.8.8,0,0,0,12.9,11.712ZM23.836,6.82a.57.57,0,0,0,.571.568h2.426V9.8a.571.571,0,0,0,1.142,0V7.387H30.4a.568.568,0,1,0,0-1.136H27.975V3.836a.571.571,0,0,0-1.142,0V6.251H24.406A.57.57,0,0,0,23.836,6.82Z" fill="#9fa3b1"/>
</svg>
